<?xml version="1.0" encoding="utf-8"?>
<svg version="1.1" id="Layer_1" xmlns="http://www.w3.org/2000/svg" x="0px" y="0px" width="100%" viewBox="0 0 736 736" enable-background="new 0 0 736 736">
  <path stroke="none" d="M 261.595 683.577 C 165.057 648.763 96.352 584.768 61.796 488.923 C 18.822 369.727 39.52 259.579 121.249 162.498 C 169.221 105.515 231.494 71.312 304.545 56.786 C 442.145 29.428 585.666 97.811 651.449 221.812 C 674.621 265.492 688.034 311.698 689.712 361.225 C 693.333 468.042 653.879 555.975 573.019 625.274 C 525.912 665.643 470.752 688.927 409.523 697.679 C 359.388 704.84 310.277 699.488 261.595 683.577 M 611.305 208.476 C 608.361 204.394 605.584 200.175 602.439 196.25 C 532.236 108.663 441.075 69.434 329.465 80.79 C 274.631 86.367 224.962 107.339 182.074 142.371 C 97.2 211.704 59.64 301.512 70.352 410.397 C 76.293 470.731 100.255 524.478 140.782 569.654 C 216.925 654.536 312.115 688.342 424.202 666.97 C 571.447 638.893 674.882 500.649 661.966 351.846 C 657.464 299.967 641.01 252.594 611.305 208.476 Z" style="transform-box: fill-box; transform-origin: 50% 50%; fill: rgb(255, 255, 255);"/>
  <path stroke="none" d="M 333.354 387.058 C 318.755 426.024 304.244 464.382 290.082 502.867 C 288.052 508.386 285.219 510.55 279.419 510.519 C 247.924 510.354 216.435 510.472 184.941 510.467 C 183.14 510.467 181.318 510.335 179.244 508.326 C 180.551 500.671 184.28 493.287 187.15 485.74 C 226.475 382.315 266.099 279.005 305.254 175.516 C 308.481 166.994 312.693 164.327 321.597 164.509 C 349.722 165.086 377.875 164.692 406.015 164.729 C 408.777 164.731 411.716 164.033 415.411 166.933 C 388.226 239.846 360.89 313.168 333.354 387.058 Z" style="transform-box: fill-box; transform-origin: 50% 50%; fill: rgb(255, 255, 255);"/>
  <path stroke="none" d="M 476.924 474.317 C 483.128 473.593 484.299 470.569 482.638 465.527 C 476.655 447.39 470.745 429.228 464.967 411.024 C 462.897 404.516 458.517 402.439 452.032 402.476 C 424.646 402.634 397.259 402.546 369.869 402.547 C 367.327 402.547 364.785 402.547 361.166 402.547 C 363.527 391.184 367.845 381.379 372.004 371.558 C 373.379 368.311 376.813 369.077 379.575 369.07 C 399.208 369.025 418.845 369.079 438.478 369.023 C 449.102 368.992 450.535 367.036 447.25 357.06 C 437.086 326.164 426.955 295.259 416.588 264.431 C 414.922 259.482 414.873 255.119 416.788 250.236 C 422.314 236.12 427.451 221.85 432.851 207.353 C 437.241 208.991 437.362 212.347 438.334 215.071 C 468.112 298.162 497.948 381.229 527.499 464.4 C 530.079 471.659 533.824 474.816 541.576 474.444 C 551.627 473.962 561.727 474.49 571.798 474.291 C 576.755 474.191 578.92 476.196 578.834 481.104 C 578.704 488.079 578.687 495.054 578.757 502.027 C 578.804 506.377 576.655 507.876 572.518 507.867 C 531.697 507.807 490.874 507.805 450.052 507.858 C 445.967 507.862 443.659 506.431 443.696 502.08 C 443.757 494.848 443.798 487.615 443.771 480.383 C 443.755 475.638 446.308 474.205 450.689 474.289 C 459.212 474.449 467.738 474.337 476.924 474.317 Z" style="transform-box: fill-box; transform-origin: 50% 50%; fill: rgb(255, 255, 255);"/>
</svg>